<?xml version="1.0" standalone="no"?>
 <!DOCTYPE svg PUBLIC "-//W3C//DTD SVG 1.1//EN" 
 "http://www.w3.org/Graphics/SVG/1.1/DTD/svg11.dtd"> 
<svg xmlns="http://www.w3.org/2000/svg" version="1.1" 
    width="29.7002cm" height="21.0007cm" viewBox="0 0 116930 82680 ">
<title>SVG Picture created as audiopanel-B.Cu.svg date 2019/01/27 18:53:03 </title>
  <desc>Picture generated by PCBNEW </desc>
<g style="fill:#000000; fill-opacity:1;stroke:#000000; stroke-opacity:1;
stroke-linecap:round; stroke-linejoin:round; "
 transform="translate(0 0) scale(1 1)">
</g>
<g style="fill:#000000; fill-opacity:0.0; 
stroke:#000000; stroke-width:-0.000393701; stroke-opacity:1; 
stroke-linecap:round; stroke-linejoin:round;">
</g>
<g style="fill:#000000; fill-opacity:1.0; 
stroke:#000000; stroke-width:39.3701; stroke-opacity:1; 
stroke-linecap:round; stroke-linejoin:round;">
<rect x="20002" y="18976.4" width="15496.1" height="14021.7" rx="0" />
</g>
<g style="fill:#FFFFFF; fill-opacity:1.0; 
stroke:#FFFFFF; stroke-width:39.3701; stroke-opacity:1; 
stroke-linecap:round; stroke-linejoin:round;">
</g>
<g style="fill:#FFFFFF; fill-opacity:1.0; 
stroke:#FFFFFF; stroke-width:59.0551; stroke-opacity:1; 
stroke-linecap:round; stroke-linejoin:round;">
</g>
<g style="fill:#FFFFFF; fill-opacity:0.0; 
stroke:#FFFFFF; stroke-width:59.0551; stroke-opacity:1; 
stroke-linecap:round; stroke-linejoin:round;">
<path d="M22000 31000
L22000 22500
" />
<path d="M33500 31000
L22000 31000
" />
<path d="M33500 22500
L33500 31000
" />
<path d="M22000 22500
L33500 22500
" />
</g>
<g style="fill:#FFFFFF; fill-opacity:0.0; 
stroke:#FFFFFF; stroke-width:866.142; stroke-opacity:1; 
stroke-linecap:round; stroke-linejoin:round;">
<path d="M30854 23277
L30145 23277
" />
<path d="M32547 26072
L32547 26781
" />
<path d="M31484 25600
L31484 26309
" />
<path d="M28531 27687
L29240 27687
" />
</g>
<g style="fill:#FFFFFF; fill-opacity:0.0; 
stroke:#FFFFFF; stroke-width:0; stroke-opacity:1; 
stroke-linecap:round; stroke-linejoin:round;">
</g>
<g style="fill:#FFFFFF; fill-opacity:1.0; 
stroke:#FFFFFF; stroke-width:0; stroke-opacity:1; 
stroke-linecap:round; stroke-linejoin:round;">
<polyline style="fill-rule:evenodd;"
points="28255,24025
29122,24025
29122,25600
28255,25600
28255,24025
" /> 
<polyline style="fill-rule:evenodd;"
points="22566,24025
23433,24025
23433,25600
22566,25600
22566,24025
" /> 
</g>
<g style="fill:#FFFFFF; fill-opacity:1.0; 
stroke:#FFFFFF; stroke-width:866.142; stroke-opacity:1; 
stroke-linecap:round; stroke-linejoin:round;">
</g>
<g style="fill:#FFFFFF; fill-opacity:0.0; 
stroke:#FFFFFF; stroke-width:866.142; stroke-opacity:1; 
stroke-linecap:round; stroke-linejoin:round;">
<path d="M22842 27687
L23551 27687
" />
<path d="M25795 25600
L25795 26309
" />
<path d="M26858 26072
L26858 26781
" />
<path d="M25165 23277
L24456 23277
" />
</g>
<g style="fill:#FFFFFF; fill-opacity:0.0; 
stroke:#FFFFFF; stroke-width:0; stroke-opacity:1; 
stroke-linecap:round; stroke-linejoin:round;">
</g>
<g style="fill:#FFFFFF; fill-opacity:1.0; 
stroke:#FFFFFF; stroke-width:0; stroke-opacity:1; 
stroke-linecap:round; stroke-linejoin:round;">
<polyline style="fill-rule:evenodd;"
points="29492,29008
29492,29992
28508,29992
28508,29008
29492,29008
" /> 
<circle cx="27750" cy="29500" r="492" /> 
</g>
<g style="fill:#FFFFFF; fill-opacity:1.0; 
stroke:#FFFFFF; stroke-width:39.3701; stroke-opacity:1; 
stroke-linecap:round; stroke-linejoin:round;">
</g>
<g style="fill:#FFFFFF; fill-opacity:1.0; 
stroke:#FFFFFF; stroke-width:0; stroke-opacity:1; 
stroke-linecap:round; stroke-linejoin:round;">
<circle cx="26500" cy="29500" r="492" /> 
</g>
<g style="fill:#FFFFFF; fill-opacity:1.0; 
stroke:#FFFFFF; stroke-width:39.3701; stroke-opacity:1; 
stroke-linecap:round; stroke-linejoin:round;">
</g>
<g style="fill:#FFFFFF; fill-opacity:1.0; 
stroke:#FFFFFF; stroke-width:393.701; stroke-opacity:1; 
stroke-linecap:round; stroke-linejoin:round;">
</g>
<g style="fill:#FFFFFF; fill-opacity:0.0; 
stroke:#FFFFFF; stroke-width:393.701; stroke-opacity:1; 
stroke-linecap:round; stroke-linejoin:round;">
<path d="M27685 26427
L26858 26427
" />
<path d="M29149 26427
L27685 26427
" />
<path d="M29858 27135
L29149 26427
" />
<path d="M32547 26781
L32192 27135
" />
<path d="M32547 26427
L32547 26781
" />
<path d="M30066 27202
L30000 27135
" />
<path d="M30066 29318
L30066 27202
" />
<path d="M29885 29500
L30066 29318
" />
<path d="M29000 29500
L29885 29500
" />
<path d="M32192 27135
L30000 27135
" />
<path d="M30000 27135
L29858 27135
" />
<path d="M27822 24773
L27862 24812
" />
<path d="M27862 24812
L28688 24812
" />
<path d="M23826 24812
L23866 24773
" />
<path d="M23000 24812
L23826 24812
" />
<path d="M24968 24805
L25000 24773
" />
<path d="M24968 27968
L24968 24805
" />
<path d="M26500 29500
L24968 27968
" />
<path d="M23866 24773
L25000 24773
" />
<path d="M25000 24773
L27822 24773
" />
</g>
<g style="fill:#FFFFFF; fill-opacity:1.0; 
stroke:#FFFFFF; stroke-width:100; stroke-opacity:1; 
stroke-linecap:round; stroke-linejoin:round;">
<polyline style="fill-rule:evenodd;"
points="23938,22829
23806,23062
23791,23121
23838,23227
24761,23227
24761,23219
24861,23219
24861,23227
25783,23227
25830,23121
25815,23062
25683,22829
25619,22779
29691,22779
29627,22829
29495,23062
29480,23121
29527,23227
30450,23227
30450,23219
30550,23219
30550,23227
31472,23227
31519,23121
31504,23062
31372,22829
31308,22779
33220,22779
33220,25956
33190,25806
33039,25580
32813,25429
32547,25376
32280,25429
32162,25508
32127,25333
31976,25107
31750,24956
31484,24903
31217,24956
30991,25107
30840,25333
30801,25533
30801,26376
30840,26575
30916,26688
30044,26688
30043,26688
29496,26142
29471,26105
29323,26006
29193,25980
29149,25971
29105,25980
27536,25980
27501,25806
27350,25580
27124,25429
26858,25376
26591,25429
26473,25508
26438,25333
26362,25220
27667,25220
27687,25233
27818,25259
27862,25268
27906,25259
28001,25259
28001,25600
28020,25697
28075,25780
28158,25835
28255,25855
29122,25855
29219,25835
29302,25780
29357,25697
29376,25600
29376,24025
29357,23928
29302,23845
29219,23790
29122,23770
28255,23770
28158,23790
28075,23845
28020,23928
28001,24025
28001,24355
27997,24352
27866,24326
27822,24318
27778,24326
25044,24326
24999,24318
24955,24326
23910,24326
23866,24318
23822,24326
23691,24352
23687,24355
23687,24025
23668,23928
23613,23845
23530,23790
23433,23770
22566,23770
22469,23790
22386,23845
22331,23928
22312,24025
22312,25600
22331,25697
22386,25780
22469,25835
22566,25855
23433,25855
23530,25835
23613,25780
23668,25697
23687,25600
23687,25259
23782,25259
23826,25268
23870,25259
24001,25233
24021,25220
24521,25220
24521,27924
24512,27968
24521,28012
24547,28142
24646,28290
24683,28315
25758,29389
25758,29647
25870,29920
26079,30129
26352,30242
26647,30242
26920,30129
27129,29920
27132,29913
27225,29954
27679,29500
27225,29045
27132,29086
27129,29079
26920,28870
26647,28758
26389,28758
25415,27783
25415,26876
25528,26952
25795,27005
26061,26952
26180,26873
26214,27048
26365,27273
26591,27424
26858,27477
27124,27424
27350,27273
27501,27048
27536,26874
28964,26874
29094,27003
28464,27003
28264,27043
28039,27194
27888,27420
27835,27687
27888,27953
28039,28179
28264,28330
28464,28370
29307,28370
29506,28330
29620,28254
29620,28792
29589,28772
29492,28753
28508,28753
28410,28772
28327,28827
28272,28910
28265,28946
28248,28930
28204,28975
28153,28859
27877,28754
27582,28762
27346,28859
27295,28975
27750,29429
27755,29423
27826,29494
27820,29500
27826,29505
27755,29576
27750,29570
27295,30024
27346,30140
27622,30245
27917,30237
28153,30140
28204,30024
28248,30069
28265,30053
28272,30089
28327,30172
28410,30227
28508,30246
29492,30246
29589,30227
29672,30172
29727,30089
29746,29992
29746,29946
29841,29946
29885,29955
29929,29946
30060,29920
30207,29822
30232,29784
30351,29665
30389,29640
30487,29493
30513,29362
30513,29362
30522,29318
30513,29274
30513,27582
32148,27582
32192,27591
32236,27582
32367,27556
32499,27468
32547,27477
32813,27424
33039,27273
33190,27048
33220,26898
33220,30720
22279,30720
22279,28073
22350,28179
22575,28330
22775,28370
23618,28370
23817,28330
24043,28179
24194,27953
24247,27687
24194,27420
24043,27194
23817,27043
23618,27003
22775,27003
22575,27043
22350,27194
22279,27300
22279,23433
23791,23433
23806,23492
23938,23725
24149,23889
24406,23960
24761,23960
24761,23327
24861,23327
24861,23960
25215,23960
25472,23889
25683,23725
25815,23492
25830,23433
29480,23433
29495,23492
29627,23725
29838,23889
30095,23960
30450,23960
30450,23327
30550,23327
30550,23960
30904,23960
31161,23889
31372,23725
31504,23492
31519,23433
31472,23327
30550,23327
30450,23327
29527,23327
29480,23433
25830,23433
25783,23327
24861,23327
24761,23327
23838,23327
23791,23433
22279,23433
22279,22779
24002,22779
23938,22829
" /> 
</g>
<g style="fill:#000000; fill-opacity:1.0; 
stroke:#000000; stroke-width:100; stroke-opacity:1; 
stroke-linecap:round; stroke-linejoin:round;">
</g>
<g style="fill:#000000; fill-opacity:1.0; 
stroke:#000000; stroke-width:0; stroke-opacity:1; 
stroke-linecap:round; stroke-linejoin:round;">
<circle cx="30500" cy="23277.6" r="68.8976" /> 
</g>
<g style="fill:#000000; fill-opacity:1.0; 
stroke:#000000; stroke-width:39.3701; stroke-opacity:1; 
stroke-linecap:round; stroke-linejoin:round;">
</g>
<g style="fill:#000000; fill-opacity:1.0; 
stroke:#000000; stroke-width:0; stroke-opacity:1; 
stroke-linecap:round; stroke-linejoin:round;">
<circle cx="32547.2" cy="26427.2" r="68.8976" /> 
</g>
<g style="fill:#000000; fill-opacity:1.0; 
stroke:#000000; stroke-width:39.3701; stroke-opacity:1; 
stroke-linecap:round; stroke-linejoin:round;">
</g>
<g style="fill:#000000; fill-opacity:1.0; 
stroke:#000000; stroke-width:0; stroke-opacity:1; 
stroke-linecap:round; stroke-linejoin:round;">
<circle cx="31484.3" cy="25954.7" r="68.8976" /> 
</g>
<g style="fill:#000000; fill-opacity:1.0; 
stroke:#000000; stroke-width:39.3701; stroke-opacity:1; 
stroke-linecap:round; stroke-linejoin:round;">
</g>
<g style="fill:#000000; fill-opacity:1.0; 
stroke:#000000; stroke-width:0; stroke-opacity:1; 
stroke-linecap:round; stroke-linejoin:round;">
<circle cx="28885.8" cy="27687" r="68.8976" /> 
</g>
<g style="fill:#000000; fill-opacity:1.0; 
stroke:#000000; stroke-width:39.3701; stroke-opacity:1; 
stroke-linecap:round; stroke-linejoin:round;">
</g>
<g style="fill:#000000; fill-opacity:1.0; 
stroke:#000000; stroke-width:0; stroke-opacity:1; 
stroke-linecap:round; stroke-linejoin:round;">
<circle cx="28689" cy="24813" r="68.8976" /> 
</g>
<g style="fill:#000000; fill-opacity:1.0; 
stroke:#000000; stroke-width:39.3701; stroke-opacity:1; 
stroke-linecap:round; stroke-linejoin:round;">
</g>
<g style="fill:#000000; fill-opacity:1.0; 
stroke:#000000; stroke-width:0; stroke-opacity:1; 
stroke-linecap:round; stroke-linejoin:round;">
<circle cx="23000" cy="24813" r="68.8976" /> 
</g>
<g style="fill:#000000; fill-opacity:1.0; 
stroke:#000000; stroke-width:39.3701; stroke-opacity:1; 
stroke-linecap:round; stroke-linejoin:round;">
</g>
<g style="fill:#000000; fill-opacity:1.0; 
stroke:#000000; stroke-width:0; stroke-opacity:1; 
stroke-linecap:round; stroke-linejoin:round;">
<circle cx="23196.9" cy="27687" r="68.8976" /> 
</g>
<g style="fill:#000000; fill-opacity:1.0; 
stroke:#000000; stroke-width:39.3701; stroke-opacity:1; 
stroke-linecap:round; stroke-linejoin:round;">
</g>
<g style="fill:#000000; fill-opacity:1.0; 
stroke:#000000; stroke-width:0; stroke-opacity:1; 
stroke-linecap:round; stroke-linejoin:round;">
<circle cx="25795.3" cy="25954.7" r="68.8976" /> 
</g>
<g style="fill:#000000; fill-opacity:1.0; 
stroke:#000000; stroke-width:39.3701; stroke-opacity:1; 
stroke-linecap:round; stroke-linejoin:round;">
</g>
<g style="fill:#000000; fill-opacity:1.0; 
stroke:#000000; stroke-width:0; stroke-opacity:1; 
stroke-linecap:round; stroke-linejoin:round;">
<circle cx="26858.3" cy="26427.2" r="68.8976" /> 
</g>
<g style="fill:#000000; fill-opacity:1.0; 
stroke:#000000; stroke-width:39.3701; stroke-opacity:1; 
stroke-linecap:round; stroke-linejoin:round;">
</g>
<g style="fill:#000000; fill-opacity:1.0; 
stroke:#000000; stroke-width:0; stroke-opacity:1; 
stroke-linecap:round; stroke-linejoin:round;">
<circle cx="24811" cy="23277.6" r="68.8976" /> 
</g>
<g style="fill:#000000; fill-opacity:1.0; 
stroke:#000000; stroke-width:39.3701; stroke-opacity:1; 
stroke-linecap:round; stroke-linejoin:round;">
</g>
<g style="fill:#000000; fill-opacity:1.0; 
stroke:#000000; stroke-width:0; stroke-opacity:1; 
stroke-linecap:round; stroke-linejoin:round;">
<circle cx="29000" cy="29500" r="68.8976" /> 
</g>
<g style="fill:#000000; fill-opacity:1.0; 
stroke:#000000; stroke-width:39.3701; stroke-opacity:1; 
stroke-linecap:round; stroke-linejoin:round;">
</g>
<g style="fill:#000000; fill-opacity:1.0; 
stroke:#000000; stroke-width:0; stroke-opacity:1; 
stroke-linecap:round; stroke-linejoin:round;">
<circle cx="27750" cy="29500" r="68.8976" /> 
</g>
<g style="fill:#000000; fill-opacity:1.0; 
stroke:#000000; stroke-width:39.3701; stroke-opacity:1; 
stroke-linecap:round; stroke-linejoin:round;">
</g>
<g style="fill:#000000; fill-opacity:1.0; 
stroke:#000000; stroke-width:0; stroke-opacity:1; 
stroke-linecap:round; stroke-linejoin:round;">
<circle cx="26500" cy="29500" r="68.8976" /> 
</g>
<g style="fill:#000000; fill-opacity:1.0; 
stroke:#000000; stroke-width:39.3701; stroke-opacity:1; 
stroke-linecap:round; stroke-linejoin:round;">
</g>
<g style="fill:#FFFFFF; fill-opacity:1.0; 
stroke:#FFFFFF; stroke-width:39.3701; stroke-opacity:1; 
stroke-linecap:round; stroke-linejoin:round;">
</g> 
</svg>
