<?xml version="1.0" standalone="no"?>
 <!DOCTYPE svg PUBLIC "-//W3C//DTD SVG 1.1//EN" 
 "http://www.w3.org/Graphics/SVG/1.1/DTD/svg11.dtd"> 
<svg xmlns="http://www.w3.org/2000/svg" version="1.1" 
    width="29.7002cm" height="21.0007cm" viewBox="0 0 116930 82680 ">
<title>SVG Picture created as audiopanel-B.Cu.svg date 2019/01/27 18:58:46 </title>
  <desc>Picture generated by PCBNEW </desc>
<g style="fill:#000000; fill-opacity:1;stroke:#000000; stroke-opacity:1;
stroke-linecap:round; stroke-linejoin:round; "
 transform="translate(0 0) scale(1 1)">
</g>
<g style="fill:#000000; fill-opacity:0.0; 
stroke:#000000; stroke-width:-0.000393701; stroke-opacity:1; 
stroke-linecap:round; stroke-linejoin:round;">
</g>
<g style="fill:#000000; fill-opacity:1.0; 
stroke:#000000; stroke-width:39.3701; stroke-opacity:1; 
stroke-linecap:round; stroke-linejoin:round;">
<rect x="20002" y="18976.4" width="15496.1" height="13521.7" rx="0" />
</g>
<g style="fill:#FFFFFF; fill-opacity:1.0; 
stroke:#FFFFFF; stroke-width:39.3701; stroke-opacity:1; 
stroke-linecap:round; stroke-linejoin:round;">
</g>
<g style="fill:#FFFFFF; fill-opacity:1.0; 
stroke:#FFFFFF; stroke-width:59.0551; stroke-opacity:1; 
stroke-linecap:round; stroke-linejoin:round;">
</g>
<g style="fill:#FFFFFF; fill-opacity:0.0; 
stroke:#FFFFFF; stroke-width:59.0551; stroke-opacity:1; 
stroke-linecap:round; stroke-linejoin:round;">
<path d="M22000 30500
L22000 22500
" />
<path d="M33500 30500
L22000 30500
" />
<path d="M33500 22500
L33500 30500
" />
<path d="M22000 22500
L33500 22500
" />
</g>
<g style="fill:#FFFFFF; fill-opacity:0.0; 
stroke:#FFFFFF; stroke-width:866.142; stroke-opacity:1; 
stroke-linecap:round; stroke-linejoin:round;">
<path d="M30854 23277
L30145 23277
" />
<path d="M32547 26072
L32547 26781
" />
<path d="M31484 25600
L31484 26309
" />
<path d="M28531 27687
L29240 27687
" />
</g>
<g style="fill:#FFFFFF; fill-opacity:0.0; 
stroke:#FFFFFF; stroke-width:0; stroke-opacity:1; 
stroke-linecap:round; stroke-linejoin:round;">
</g>
<g style="fill:#FFFFFF; fill-opacity:1.0; 
stroke:#FFFFFF; stroke-width:0; stroke-opacity:1; 
stroke-linecap:round; stroke-linejoin:round;">
<polyline style="fill-rule:evenodd;"
points="28255,24025
29122,24025
29122,25600
28255,25600
28255,24025
" /> 
<polyline style="fill-rule:evenodd;"
points="22566,24025
23433,24025
23433,25600
22566,25600
22566,24025
" /> 
</g>
<g style="fill:#FFFFFF; fill-opacity:1.0; 
stroke:#FFFFFF; stroke-width:866.142; stroke-opacity:1; 
stroke-linecap:round; stroke-linejoin:round;">
</g>
<g style="fill:#FFFFFF; fill-opacity:0.0; 
stroke:#FFFFFF; stroke-width:866.142; stroke-opacity:1; 
stroke-linecap:round; stroke-linejoin:round;">
<path d="M22842 27687
L23551 27687
" />
<path d="M25795 25600
L25795 26309
" />
<path d="M26858 26072
L26858 26781
" />
<path d="M25165 23277
L24456 23277
" />
</g>
<g style="fill:#FFFFFF; fill-opacity:0.0; 
stroke:#FFFFFF; stroke-width:0; stroke-opacity:1; 
stroke-linecap:round; stroke-linejoin:round;">
</g>
<g style="fill:#FFFFFF; fill-opacity:1.0; 
stroke:#FFFFFF; stroke-width:0; stroke-opacity:1; 
stroke-linecap:round; stroke-linejoin:round;">
<polyline style="fill-rule:evenodd;"
points="29492,29008
29492,29992
28508,29992
28508,29008
29492,29008
" /> 
<circle cx="27750" cy="29500" r="492" /> 
</g>
<g style="fill:#FFFFFF; fill-opacity:1.0; 
stroke:#FFFFFF; stroke-width:39.3701; stroke-opacity:1; 
stroke-linecap:round; stroke-linejoin:round;">
</g>
<g style="fill:#FFFFFF; fill-opacity:1.0; 
stroke:#FFFFFF; stroke-width:0; stroke-opacity:1; 
stroke-linecap:round; stroke-linejoin:round;">
<circle cx="26500" cy="29500" r="492" /> 
</g>
<g style="fill:#FFFFFF; fill-opacity:1.0; 
stroke:#FFFFFF; stroke-width:39.3701; stroke-opacity:1; 
stroke-linecap:round; stroke-linejoin:round;">
</g>
<g style="fill:#FFFFFF; fill-opacity:1.0; 
stroke:#FFFFFF; stroke-width:393.701; stroke-opacity:1; 
stroke-linecap:round; stroke-linejoin:round;">
</g>
<g style="fill:#FFFFFF; fill-opacity:0.0; 
stroke:#FFFFFF; stroke-width:393.701; stroke-opacity:1; 
stroke-linecap:round; stroke-linejoin:round;">
<path d="M27685 26427
L26858 26427
" />
<path d="M29149 26427
L27685 26427
" />
<path d="M29858 27135
L29149 26427
" />
<path d="M32547 26781
L32192 27135
" />
<path d="M32547 26427
L32547 26781
" />
<path d="M30066 27202
L30000 27135
" />
<path d="M30066 29318
L30066 27202
" />
<path d="M29885 29500
L30066 29318
" />
<path d="M29000 29500
L29885 29500
" />
<path d="M32192 27135
L30000 27135
" />
<path d="M30000 27135
L29858 27135
" />
<path d="M27822 24773
L27862 24812
" />
<path d="M27862 24812
L28688 24812
" />
<path d="M23826 24812
L23866 24773
" />
<path d="M23000 24812
L23826 24812
" />
<path d="M24968 24805
L25000 24773
" />
<path d="M24968 27968
L24968 24805
" />
<path d="M26500 29500
L24968 27968
" />
<path d="M23866 24773
L25000 24773
" />
<path d="M25000 24773
L27822 24773
" />
</g>
<g style="fill:#FFFFFF; fill-opacity:1.0; 
stroke:#FFFFFF; stroke-width:100; stroke-opacity:1; 
stroke-linecap:round; stroke-linejoin:round;">
<polyline style="fill-rule:evenodd;"
points="24149,22665
23938,22829
23806,23062
23791,23121
23838,23227
24761,23227
24761,23219
24861,23219
24861,23227
25783,23227
25830,23121
25815,23062
25683,22829
25472,22665
25446,22658
29864,22658
29838,22665
29627,22829
29495,23062
29480,23121
29527,23227
30450,23227
30450,23219
30550,23219
30550,23227
31472,23227
31519,23121
31504,23062
31372,22829
31161,22665
31135,22658
33341,22658
33341,30341
22158,30341
22158,27732
22202,27952
22352,28177
22577,28327
22775,28366
23618,28366
23816,28327
24041,28177
24191,27952
24244,27687
24191,27421
24041,27196
23816,27046
23618,27007
22775,27007
22577,27046
22352,27196
22202,27421
22158,27641
22158,24025
22315,24025
22315,25600
22334,25696
22388,25778
22470,25832
22566,25852
23433,25852
23529,25832
23611,25778
23665,25696
23684,25600
23684,25256
23783,25256
23826,25265
23870,25256
23870,25256
23999,25230
24020,25217
24524,25217
24524,27924
24516,27968
24524,28012
24550,28141
24648,28288
24685,28313
25761,29388
25761,29646
25873,29918
26081,30126
26353,30238
26646,30238
26918,30126
27126,29918
27129,29911
27225,29954
27679,29500
27225,29045
27129,29088
27126,29081
26918,28873
26646,28761
26388,28761
25412,27784
25412,26870
25529,26949
25795,27002
26060,26949
26182,26868
26217,27046
26368,27271
26592,27421
26858,27474
27123,27421
27348,27271
27498,27046
27533,26870
28965,26870
29101,27007
28464,27007
28266,27046
28041,27196
27891,27421
27838,27687
27891,27952
28041,28177
28266,28327
28464,28366
29307,28366
29505,28327
29623,28248
29623,28798
29588,28775
29492,28756
28508,28756
28411,28775
28330,28830
28275,28911
28267,28949
28248,28930
28204,28975
28153,28859
27877,28754
27582,28762
27346,28859
27295,28975
27750,29429
27755,29423
27826,29494
27820,29500
27826,29505
27755,29576
27750,29570
27295,30024
27346,30140
27622,30245
27917,30237
28153,30140
28204,30024
28248,30069
28267,30050
28275,30088
28330,30169
28411,30224
28508,30243
29492,30243
29588,30224
29669,30169
29724,30088
29743,29992
29743,29943
29842,29943
29885,29952
29929,29943
29929,29943
30058,29917
30205,29819
30230,29782
30349,29663
30386,29638
30484,29491
30510,29362
30510,29362
30519,29318
30510,29275
30510,27579
32149,27579
32192,27588
32236,27579
32236,27579
32366,27553
32498,27465
32547,27474
32812,27421
33037,27271
33187,27046
33227,26848
33227,26005
33187,25807
33037,25582
32812,25432
32547,25379
32281,25432
32160,25513
32124,25335
31974,25110
31749,24959
31484,24907
31218,24959
30994,25110
30843,25335
30804,25533
30804,26376
30843,26574
30922,26692
30043,26692
30041,26691
29494,26144
29469,26107
29322,26009
29193,25983
29193,25983
29149,25974
29105,25983
27533,25983
27498,25807
27348,25582
27123,25432
26858,25379
26592,25432
26471,25513
26435,25335
26357,25217
27668,25217
27689,25230
27818,25256
27862,25265
27905,25256
28004,25256
28004,25600
28023,25696
28077,25778
28159,25832
28255,25852
29122,25852
29218,25832
29300,25778
29354,25696
29373,25600
29373,24025
29354,23929
29300,23847
29218,23793
29122,23773
28255,23773
28159,23793
28077,23847
28023,23929
28004,24025
28004,24361
27995,24355
27866,24329
27866,24329
27822,24321
27779,24329
25043,24329
24999,24321
24956,24329
23909,24329
23866,24321
23822,24329
23693,24355
23684,24361
23684,24025
23665,23929
23611,23847
23529,23793
23433,23773
22566,23773
22470,23793
22388,23847
22334,23929
22315,24025
22158,24025
22158,23433
23791,23433
23806,23492
23938,23725
24149,23889
24406,23960
24761,23960
24761,23327
24861,23327
24861,23960
25215,23960
25472,23889
25683,23725
25815,23492
25830,23433
29480,23433
29495,23492
29627,23725
29838,23889
30095,23960
30450,23960
30450,23327
30550,23327
30550,23960
30904,23960
31161,23889
31372,23725
31504,23492
31519,23433
31472,23327
30550,23327
30450,23327
29527,23327
29480,23433
25830,23433
25783,23327
24861,23327
24761,23327
23838,23327
23791,23433
22158,23433
22158,22658
24175,22658
24149,22665
" /> 
</g>
<g style="fill:#000000; fill-opacity:1.0; 
stroke:#000000; stroke-width:100; stroke-opacity:1; 
stroke-linecap:round; stroke-linejoin:round;">
</g>
<g style="fill:#000000; fill-opacity:1.0; 
stroke:#000000; stroke-width:0; stroke-opacity:1; 
stroke-linecap:round; stroke-linejoin:round;">
<circle cx="30500" cy="23277.6" r="68.8976" /> 
</g>
<g style="fill:#000000; fill-opacity:1.0; 
stroke:#000000; stroke-width:39.3701; stroke-opacity:1; 
stroke-linecap:round; stroke-linejoin:round;">
</g>
<g style="fill:#000000; fill-opacity:1.0; 
stroke:#000000; stroke-width:0; stroke-opacity:1; 
stroke-linecap:round; stroke-linejoin:round;">
<circle cx="32547.2" cy="26427.2" r="68.8976" /> 
</g>
<g style="fill:#000000; fill-opacity:1.0; 
stroke:#000000; stroke-width:39.3701; stroke-opacity:1; 
stroke-linecap:round; stroke-linejoin:round;">
</g>
<g style="fill:#000000; fill-opacity:1.0; 
stroke:#000000; stroke-width:0; stroke-opacity:1; 
stroke-linecap:round; stroke-linejoin:round;">
<circle cx="31484.3" cy="25954.7" r="68.8976" /> 
</g>
<g style="fill:#000000; fill-opacity:1.0; 
stroke:#000000; stroke-width:39.3701; stroke-opacity:1; 
stroke-linecap:round; stroke-linejoin:round;">
</g>
<g style="fill:#000000; fill-opacity:1.0; 
stroke:#000000; stroke-width:0; stroke-opacity:1; 
stroke-linecap:round; stroke-linejoin:round;">
<circle cx="28885.8" cy="27687" r="68.8976" /> 
</g>
<g style="fill:#000000; fill-opacity:1.0; 
stroke:#000000; stroke-width:39.3701; stroke-opacity:1; 
stroke-linecap:round; stroke-linejoin:round;">
</g>
<g style="fill:#000000; fill-opacity:1.0; 
stroke:#000000; stroke-width:0; stroke-opacity:1; 
stroke-linecap:round; stroke-linejoin:round;">
<circle cx="28689" cy="24813" r="68.8976" /> 
</g>
<g style="fill:#000000; fill-opacity:1.0; 
stroke:#000000; stroke-width:39.3701; stroke-opacity:1; 
stroke-linecap:round; stroke-linejoin:round;">
</g>
<g style="fill:#000000; fill-opacity:1.0; 
stroke:#000000; stroke-width:0; stroke-opacity:1; 
stroke-linecap:round; stroke-linejoin:round;">
<circle cx="23000" cy="24813" r="68.8976" /> 
</g>
<g style="fill:#000000; fill-opacity:1.0; 
stroke:#000000; stroke-width:39.3701; stroke-opacity:1; 
stroke-linecap:round; stroke-linejoin:round;">
</g>
<g style="fill:#000000; fill-opacity:1.0; 
stroke:#000000; stroke-width:0; stroke-opacity:1; 
stroke-linecap:round; stroke-linejoin:round;">
<circle cx="23196.9" cy="27687" r="68.8976" /> 
</g>
<g style="fill:#000000; fill-opacity:1.0; 
stroke:#000000; stroke-width:39.3701; stroke-opacity:1; 
stroke-linecap:round; stroke-linejoin:round;">
</g>
<g style="fill:#000000; fill-opacity:1.0; 
stroke:#000000; stroke-width:0; stroke-opacity:1; 
stroke-linecap:round; stroke-linejoin:round;">
<circle cx="25795.3" cy="25954.7" r="68.8976" /> 
</g>
<g style="fill:#000000; fill-opacity:1.0; 
stroke:#000000; stroke-width:39.3701; stroke-opacity:1; 
stroke-linecap:round; stroke-linejoin:round;">
</g>
<g style="fill:#000000; fill-opacity:1.0; 
stroke:#000000; stroke-width:0; stroke-opacity:1; 
stroke-linecap:round; stroke-linejoin:round;">
<circle cx="26858.3" cy="26427.2" r="68.8976" /> 
</g>
<g style="fill:#000000; fill-opacity:1.0; 
stroke:#000000; stroke-width:39.3701; stroke-opacity:1; 
stroke-linecap:round; stroke-linejoin:round;">
</g>
<g style="fill:#000000; fill-opacity:1.0; 
stroke:#000000; stroke-width:0; stroke-opacity:1; 
stroke-linecap:round; stroke-linejoin:round;">
<circle cx="24811" cy="23277.6" r="68.8976" /> 
</g>
<g style="fill:#000000; fill-opacity:1.0; 
stroke:#000000; stroke-width:39.3701; stroke-opacity:1; 
stroke-linecap:round; stroke-linejoin:round;">
</g>
<g style="fill:#000000; fill-opacity:1.0; 
stroke:#000000; stroke-width:0; stroke-opacity:1; 
stroke-linecap:round; stroke-linejoin:round;">
<circle cx="29000" cy="29500" r="68.8976" /> 
</g>
<g style="fill:#000000; fill-opacity:1.0; 
stroke:#000000; stroke-width:39.3701; stroke-opacity:1; 
stroke-linecap:round; stroke-linejoin:round;">
</g>
<g style="fill:#000000; fill-opacity:1.0; 
stroke:#000000; stroke-width:0; stroke-opacity:1; 
stroke-linecap:round; stroke-linejoin:round;">
<circle cx="27750" cy="29500" r="68.8976" /> 
</g>
<g style="fill:#000000; fill-opacity:1.0; 
stroke:#000000; stroke-width:39.3701; stroke-opacity:1; 
stroke-linecap:round; stroke-linejoin:round;">
</g>
<g style="fill:#000000; fill-opacity:1.0; 
stroke:#000000; stroke-width:0; stroke-opacity:1; 
stroke-linecap:round; stroke-linejoin:round;">
<circle cx="26500" cy="29500" r="68.8976" /> 
</g>
<g style="fill:#000000; fill-opacity:1.0; 
stroke:#000000; stroke-width:39.3701; stroke-opacity:1; 
stroke-linecap:round; stroke-linejoin:round;">
</g>
<g style="fill:#FFFFFF; fill-opacity:1.0; 
stroke:#FFFFFF; stroke-width:39.3701; stroke-opacity:1; 
stroke-linecap:round; stroke-linejoin:round;">
</g> 
</svg>
