<?xml version="1.0" standalone="no"?>
 <!DOCTYPE svg PUBLIC "-//W3C//DTD SVG 1.1//EN" 
 "http://www.w3.org/Graphics/SVG/1.1/DTD/svg11.dtd"> 
<svg xmlns="http://www.w3.org/2000/svg" version="1.1" 
    width="29.7002cm" height="21.0007cm" viewBox="0 0 116930 82680 ">
<title>SVG Picture created as frontpanel-B.Cu.svg date 2019/01/21 21:30:37 </title>
  <desc>Picture generated by PCBNEW </desc>
<g style="fill:#000000; fill-opacity:1;stroke:#000000; stroke-opacity:1;
stroke-linecap:round; stroke-linejoin:round; "
 transform="translate(0 0) scale(1 1)">
</g>
<g style="fill:#000000; fill-opacity:0.0; 
stroke:#000000; stroke-width:-0.000393701; stroke-opacity:1; 
stroke-linecap:round; stroke-linejoin:round;">
</g>
<g style="fill:#000000; fill-opacity:1.0; 
stroke:#000000; stroke-width:39.3701; stroke-opacity:1; 
stroke-linecap:round; stroke-linejoin:round;">
<rect x="14002" y="41496.1" width="32496.1" height="12502" rx="0" />
</g>
<g style="fill:#FFFFFF; fill-opacity:1.0; 
stroke:#FFFFFF; stroke-width:39.3701; stroke-opacity:1; 
stroke-linecap:round; stroke-linejoin:round;">
</g>
<g style="fill:#FFFFFF; fill-opacity:1.0; 
stroke:#FFFFFF; stroke-width:59.0551; stroke-opacity:1; 
stroke-linecap:round; stroke-linejoin:round;">
</g>
<g style="fill:#FFFFFF; fill-opacity:0.0; 
stroke:#FFFFFF; stroke-width:59.0551; stroke-opacity:1; 
stroke-linecap:round; stroke-linejoin:round;">
<path d="M16000 52000
L16000 43500
" />
<path d="M44500 52000
L16000 52000
" />
<path d="M44500 43500
L44500 52000
" />
<path d="M16000 43500
L44500 43500
" />
</g>
<g style="fill:#FFFFFF; fill-opacity:1.0; 
stroke:#FFFFFF; stroke-width:0; stroke-opacity:1; 
stroke-linecap:round; stroke-linejoin:round;">
<circle cx="40275.6" cy="46968.5" r="787.402" /> 
</g>
<g style="fill:#FFFFFF; fill-opacity:1.0; 
stroke:#FFFFFF; stroke-width:39.3701; stroke-opacity:1; 
stroke-linecap:round; stroke-linejoin:round;">
</g>
<g style="fill:#FFFFFF; fill-opacity:1.0; 
stroke:#FFFFFF; stroke-width:0; stroke-opacity:1; 
stroke-linecap:round; stroke-linejoin:round;">
<circle cx="36811" cy="46968.5" r="787.402" /> 
</g>
<g style="fill:#FFFFFF; fill-opacity:1.0; 
stroke:#FFFFFF; stroke-width:39.3701; stroke-opacity:1; 
stroke-linecap:round; stroke-linejoin:round;">
</g>
<g style="fill:#FFFFFF; fill-opacity:1.0; 
stroke:#FFFFFF; stroke-width:0; stroke-opacity:1; 
stroke-linecap:round; stroke-linejoin:round;">
<circle cx="39527.6" cy="49724.4" r="354.331" /> 
</g>
<g style="fill:#FFFFFF; fill-opacity:1.0; 
stroke:#FFFFFF; stroke-width:39.3701; stroke-opacity:1; 
stroke-linecap:round; stroke-linejoin:round;">
</g>
<g style="fill:#FFFFFF; fill-opacity:1.0; 
stroke:#FFFFFF; stroke-width:0; stroke-opacity:1; 
stroke-linecap:round; stroke-linejoin:round;">
<circle cx="38543.3" cy="49724.4" r="354.331" /> 
</g>
<g style="fill:#FFFFFF; fill-opacity:1.0; 
stroke:#FFFFFF; stroke-width:39.3701; stroke-opacity:1; 
stroke-linecap:round; stroke-linejoin:round;">
</g>
<g style="fill:#FFFFFF; fill-opacity:1.0; 
stroke:#FFFFFF; stroke-width:0; stroke-opacity:1; 
stroke-linecap:round; stroke-linejoin:round;">
<circle cx="37559.1" cy="49724.4" r="354.331" /> 
</g>
<g style="fill:#FFFFFF; fill-opacity:1.0; 
stroke:#FFFFFF; stroke-width:39.3701; stroke-opacity:1; 
stroke-linecap:round; stroke-linejoin:round;">
</g>
<g style="fill:#FFFFFF; fill-opacity:1.0; 
stroke:#FFFFFF; stroke-width:0; stroke-opacity:1; 
stroke-linecap:round; stroke-linejoin:round;">
<polyline style="fill-rule:evenodd;"
points="28393,50606
28393,51393
27606,51393
27606,50606
28393,50606
" /> 
<circle cx="26500" cy="51000" r="393.5" /> 
</g>
<g style="fill:#FFFFFF; fill-opacity:1.0; 
stroke:#FFFFFF; stroke-width:39.3701; stroke-opacity:1; 
stroke-linecap:round; stroke-linejoin:round;">
</g>
<g style="fill:#FFFFFF; fill-opacity:1.0; 
stroke:#FFFFFF; stroke-width:0; stroke-opacity:1; 
stroke-linecap:round; stroke-linejoin:round;">
<circle cx="34000" cy="51000" r="393.5" /> 
</g>
<g style="fill:#FFFFFF; fill-opacity:1.0; 
stroke:#FFFFFF; stroke-width:39.3701; stroke-opacity:1; 
stroke-linecap:round; stroke-linejoin:round;">
</g>
<g style="fill:#FFFFFF; fill-opacity:1.0; 
stroke:#FFFFFF; stroke-width:0; stroke-opacity:1; 
stroke-linecap:round; stroke-linejoin:round;">
<polyline style="fill-rule:evenodd;"
points="32106,51393
32106,50606
32893,50606
32893,51393
32106,51393
" /> 
<polyline style="fill-rule:evenodd;"
points="23346,50551
23346,51338
22559,51338
22559,50551
23346,50551
" /> 
<circle cx="21702.8" cy="50944.9" r="393.5" /> 
</g>
<g style="fill:#FFFFFF; fill-opacity:1.0; 
stroke:#FFFFFF; stroke-width:39.3701; stroke-opacity:1; 
stroke-linecap:round; stroke-linejoin:round;">
</g>
<g style="fill:#FFFFFF; fill-opacity:1.0; 
stroke:#FFFFFF; stroke-width:0; stroke-opacity:1; 
stroke-linecap:round; stroke-linejoin:round;">
<circle cx="20452.8" cy="50944.9" r="393.5" /> 
</g>
<g style="fill:#FFFFFF; fill-opacity:1.0; 
stroke:#FFFFFF; stroke-width:39.3701; stroke-opacity:1; 
stroke-linecap:round; stroke-linejoin:round;">
</g>
<g style="fill:#FFFFFF; fill-opacity:1.0; 
stroke:#FFFFFF; stroke-width:0; stroke-opacity:1; 
stroke-linecap:round; stroke-linejoin:round;">
<circle cx="37578.7" cy="50944.9" r="393.5" /> 
</g>
<g style="fill:#FFFFFF; fill-opacity:1.0; 
stroke:#FFFFFF; stroke-width:39.3701; stroke-opacity:1; 
stroke-linecap:round; stroke-linejoin:round;">
</g>
<g style="fill:#FFFFFF; fill-opacity:1.0; 
stroke:#FFFFFF; stroke-width:0; stroke-opacity:1; 
stroke-linecap:round; stroke-linejoin:round;">
<circle cx="38828.7" cy="50944.9" r="393.5" /> 
</g>
<g style="fill:#FFFFFF; fill-opacity:1.0; 
stroke:#FFFFFF; stroke-width:39.3701; stroke-opacity:1; 
stroke-linecap:round; stroke-linejoin:round;">
</g>
<g style="fill:#FFFFFF; fill-opacity:1.0; 
stroke:#FFFFFF; stroke-width:0; stroke-opacity:1; 
stroke-linecap:round; stroke-linejoin:round;">
<polyline style="fill-rule:evenodd;"
points="40472,50551
40472,51338
39685,51338
39685,50551
40472,50551
" /> 
<circle cx="20984.3" cy="49763.8" r="354.331" /> 
</g>
<g style="fill:#FFFFFF; fill-opacity:1.0; 
stroke:#FFFFFF; stroke-width:39.3701; stroke-opacity:1; 
stroke-linecap:round; stroke-linejoin:round;">
</g>
<g style="fill:#FFFFFF; fill-opacity:1.0; 
stroke:#FFFFFF; stroke-width:0; stroke-opacity:1; 
stroke-linecap:round; stroke-linejoin:round;">
<circle cx="21968.5" cy="49763.8" r="354.331" /> 
</g>
<g style="fill:#FFFFFF; fill-opacity:1.0; 
stroke:#FFFFFF; stroke-width:39.3701; stroke-opacity:1; 
stroke-linecap:round; stroke-linejoin:round;">
</g>
<g style="fill:#FFFFFF; fill-opacity:1.0; 
stroke:#FFFFFF; stroke-width:0; stroke-opacity:1; 
stroke-linecap:round; stroke-linejoin:round;">
<circle cx="22952.8" cy="49763.8" r="354.331" /> 
</g>
<g style="fill:#FFFFFF; fill-opacity:1.0; 
stroke:#FFFFFF; stroke-width:39.3701; stroke-opacity:1; 
stroke-linecap:round; stroke-linejoin:round;">
</g>
<g style="fill:#FFFFFF; fill-opacity:1.0; 
stroke:#FFFFFF; stroke-width:0; stroke-opacity:1; 
stroke-linecap:round; stroke-linejoin:round;">
<circle cx="20236.2" cy="47007.9" r="787.402" /> 
</g>
<g style="fill:#FFFFFF; fill-opacity:1.0; 
stroke:#FFFFFF; stroke-width:39.3701; stroke-opacity:1; 
stroke-linecap:round; stroke-linejoin:round;">
</g>
<g style="fill:#FFFFFF; fill-opacity:1.0; 
stroke:#FFFFFF; stroke-width:0; stroke-opacity:1; 
stroke-linecap:round; stroke-linejoin:round;">
<circle cx="23700.8" cy="47007.9" r="787.402" /> 
</g>
<g style="fill:#FFFFFF; fill-opacity:1.0; 
stroke:#FFFFFF; stroke-width:39.3701; stroke-opacity:1; 
stroke-linecap:round; stroke-linejoin:round;">
</g>
<g style="fill:#FFFFFF; fill-opacity:1.0; 
stroke:#FFFFFF; stroke-width:680; stroke-opacity:1; 
stroke-linecap:round; stroke-linejoin:round;">
</g>
<g style="fill:#FFFFFF; fill-opacity:0.0; 
stroke:#FFFFFF; stroke-width:680; stroke-opacity:1; 
stroke-linecap:round; stroke-linejoin:round;">
<path d="M26535 44306
L26535 44826
" />
<path d="M28503 44306
L28503 44826
" />
<path d="M26535 49228
L26535 49748
" />
<path d="M28503 49228
L28503 49748
" />
<path d="M32000 44838
L32000 44318
" />
<path d="M33968 44838
L33968 44318
" />
<path d="M32000 49760
L32000 49240
" />
<path d="M33968 49760
L33968 49240
" />
</g>
<g style="fill:#FFFFFF; fill-opacity:0.0; 
stroke:#FFFFFF; stroke-width:393.701; stroke-opacity:1; 
stroke-linecap:round; stroke-linejoin:round;">
<path d="M31921 44500
L32000 44578
" />
<path d="M26531 50968
L26500 51000
" />
<path d="M26535 50964
L26500 51000
" />
<path d="M26535 44566
L26535 50964
" />
<path d="M22952 49763
L22952 51023
" />
<path d="M21968 50757
L21702 51023
" />
<path d="M21968 49763
L21968 50757
" />
<path d="M20984 50492
L20452 51023
" />
<path d="M20984 49763
L20984 50492
" />
<path d="M37559 50980
L37578 51000
" />
<path d="M37559 49724
L37559 50980
" />
<path d="M38732 50982
L38750 51000
" />
<path d="M38543 50714
L38828 51000
" />
<path d="M38543 49724
L38543 50714
" />
<path d="M39527 50448
L40078 51000
" />
<path d="M39527 49724
L39527 50448
" />
<path d="M33968 44318
L33968 44578
" />
<path d="M33968 50968
L34000 51000
" />
<path d="M33968 44578
L33968 50968
" />
</g>
<g style="fill:#FFFFFF; fill-opacity:1.0; 
stroke:#FFFFFF; stroke-width:100; stroke-opacity:1; 
stroke-linecap:round; stroke-linejoin:round;">
<polyline style="fill-rule:evenodd;"
points="26083,43855
25945,44062
25909,44245
25909,44888
25945,45071
26052,45231
26052,48823
25945,48983
25909,49166
25909,49809
25945,49992
26052,50152
26052,50486
25923,50614
25820,50864
25820,51135
25923,51385
26114,51576
26364,51679
26635,51679
26885,51576
27076,51385
27179,51135
27179,51112
27356,51112
27356,51443
27394,51535
27464,51605
27556,51643
27887,51643
27950,51581
27950,51050
28050,51050
28050,51581
28112,51643
28443,51643
28535,51605
28605,51535
28643,51443
28643,51112
31856,51112
31856,51443
31894,51535
31964,51605
32056,51643
32387,51643
32450,51581
32450,51050
32550,51050
32550,51581
32612,51643
32943,51643
33035,51605
33105,51535
33143,51443
33143,51112
33081,51050
32550,51050
32450,51050
31919,51050
31856,51112
28643,51112
28581,51050
28050,51050
27950,51050
27419,51050
27356,51112
27179,51112
27179,50864
27076,50614
27018,50557
27018,50556
27356,50556
27356,50887
27419,50950
27950,50950
27950,50419
28050,50419
28050,50950
28581,50950
28643,50887
28643,50556
31856,50556
31856,50887
31919,50950
32450,50950
32450,50419
32550,50419
32550,50950
33081,50950
33143,50887
33143,50556
33105,50464
33035,50394
32943,50356
32612,50356
32550,50419
32450,50419
32387,50356
32056,50356
31964,50394
31894,50464
31856,50556
28643,50556
28605,50464
28535,50394
28443,50356
28112,50356
28050,50419
27950,50419
27887,50356
27556,50356
27464,50394
27394,50464
27356,50556
27018,50556
27018,50152
27125,49992
27161,49809
27161,49538
27913,49538
27913,49798
27977,50020
28122,50200
28324,50312
28362,50321
28453,50273
28453,49538
28553,49538
28553,50273
28645,50321
28683,50312
28885,50200
29029,50020
29093,49798
29093,49550
31410,49550
31410,49810
31474,50031
31618,50212
31820,50324
31858,50332
31950,50285
31950,49550
32050,49550
32050,50285
32141,50332
32179,50324
32381,50212
32525,50031
32590,49810
32590,49550
32050,49550
31950,49550
31410,49550
29093,49550
29093,49538
28553,49538
28453,49538
27913,49538
27161,49538
27161,49178
27913,49178
27913,49438
28453,49438
28453,48703
28553,48703
28553,49438
29093,49438
29093,49190
31410,49190
31410,49450
31950,49450
31950,48714
32050,48714
32050,49450
32590,49450
32590,49190
32525,48968
32381,48787
32179,48675
32141,48667
32050,48714
31950,48714
31858,48667
31820,48675
31618,48787
31474,48968
31410,49190
29093,49190
29093,49178
29029,48956
28885,48775
28683,48663
28645,48655
28553,48703
28453,48703
28362,48655
28324,48663
28122,48775
27977,48956
27913,49178
27161,49178
27161,49166
27125,48983
27018,48823
27018,45231
27125,45071
27161,44888
27161,44616
27913,44616
27913,44876
27977,45098
28122,45279
28324,45391
28362,45399
28453,45352
28453,44616
28553,44616
28553,45352
28645,45399
28683,45391
28885,45279
29029,45098
29093,44876
29093,44628
31410,44628
31410,44888
31474,45110
31618,45291
31820,45402
31858,45411
31950,45363
31950,44628
32050,44628
32050,45363
32141,45411
32179,45402
32381,45291
32525,45110
32590,44888
32590,44628
32050,44628
31950,44628
31410,44628
29093,44628
29093,44616
28553,44616
28453,44616
27913,44616
27161,44616
27161,44245
27125,44062
26986,43855
26927,43815
28192,43815
28122,43854
27977,44034
27913,44256
27913,44516
28453,44516
28453,44509
28553,44509
28553,44516
29093,44516
29093,44256
29029,44034
28885,43854
28815,43815
31709,43815
31618,43866
31474,44046
31410,44268
31410,44528
31950,44528
31950,44520
32050,44520
32050,44528
32590,44528
32590,44268
32525,44046
32381,43866
32290,43815
33594,43815
33517,43867
33378,44074
33342,44257
33342,44900
33378,45083
33485,45242
33485,48835
33378,48995
33342,49178
33342,49821
33378,50004
33485,50164
33485,50553
33423,50614
33320,50864
33320,51135
33423,51385
33614,51576
33864,51679
34135,51679
34385,51576
34576,51385
34679,51135
34679,50864
34656,50809
36899,50809
36899,51080
37002,51329
37193,51521
37443,51624
37713,51624
37963,51521
38154,51329
38203,51212
38252,51329
38443,51521
38693,51624
38963,51624
39213,51521
39393,51340
39415,51450
39478,51544
39573,51607
39685,51630
40472,51630
40583,51607
40678,51544
40741,51450
40764,51338
40764,50551
40741,50439
40678,50345
40583,50281
40472,50259
40021,50259
40010,50248
40010,50147
40070,50087
40168,49851
40168,49596
40070,49361
39890,49181
39654,49083
39400,49083
39164,49181
39035,49310
38906,49181
38670,49083
38415,49083
38180,49181
38051,49310
37921,49181
37686,49083
37431,49083
37196,49181
37016,49361
36918,49596
36918,49851
37016,50087
37075,50147
37075,50486
37002,50559
36899,50809
34656,50809
34576,50614
34451,50490
34451,50164
34558,50004
34594,49821
34594,49178
34558,48995
34451,48835
34451,46754
35737,46754
35737,47182
35900,47576
36202,47878
36597,48042
37024,48042
37419,47878
37721,47576
37884,47182
37884,46754
39201,46754
39201,47182
39365,47576
39667,47878
40062,48042
40489,48042
40883,47878
41185,47576
41349,47182
41349,46865
41997,46865
41997,47229
42136,47566
42394,47823
42731,47963
43095,47963
43432,47823
43690,47566
43829,47229
43829,46865
43690,46528
43432,46270
43095,46131
42731,46131
42394,46270
42136,46528
41997,46865
41349,46865
41349,46754
41185,46360
40883,46058
40489,45894
40062,45894
39667,46058
39365,46360
39201,46754
37884,46754
37721,46360
37419,46058
37024,45894
36597,45894
36202,46058
35900,46360
35737,46754
34451,46754
34451,45242
34558,45083
34594,44900
34594,44257
34558,44074
34419,43867
34342,43815
44184,43815
44184,51684
16315,51684
16315,50809
19773,50809
19773,51080
19876,51329
20067,51521
20317,51624
20587,51624
20837,51521
21028,51329
21077,51212
21126,51329
21317,51521
21567,51624
21837,51624
22087,51521
22267,51340
22289,51450
22352,51544
22447,51607
22559,51630
23346,51630
23457,51607
23552,51544
23615,51450
23638,51338
23638,50551
23615,50439
23552,50345
23457,50281
23435,50277
23435,50186
23495,50126
23593,49891
23593,49636
23495,49400
23315,49220
23080,49123
22825,49123
22589,49220
22460,49350
22331,49220
22095,49123
21841,49123
21605,49220
21476,49350
21347,49220
21111,49123
20856,49123
20621,49220
20441,49400
20343,49636
20343,49891
20441,50126
20501,50186
20501,50265
20317,50265
20067,50368
19876,50559
19773,50809
16315,50809
16315,46825
16721,46825
16721,47190
16861,47526
17118,47784
17455,47924
17820,47924
18156,47784
18414,47526
18553,47190
18553,46825
18540,46794
19162,46794
19162,47221
19326,47616
19628,47918
20022,48081
20449,48081
20844,47918
21146,47616
21309,47221
21309,46794
22627,46794
22627,47221
22790,47616
23092,47918
23487,48081
23914,48081
24308,47918
24610,47616
24774,47221
24774,46794
24610,46399
24308,46097
23914,45934
23487,45934
23092,46097
22790,46399
22627,46794
21309,46794
21146,46399
20844,46097
20449,45934
20022,45934
19628,46097
19326,46399
19162,46794
18540,46794
18414,46488
18156,46231
17820,46091
17455,46091
17118,46231
16861,46488
16721,46825
16315,46825
16315,43815
26143,43815
26083,43855
" /> 
</g>
<g style="fill:#000000; fill-opacity:1.0; 
stroke:#000000; stroke-width:100; stroke-opacity:1; 
stroke-linecap:round; stroke-linejoin:round;">
</g>
<g style="fill:#000000; fill-opacity:1.0; 
stroke:#000000; stroke-width:0; stroke-opacity:1; 
stroke-linecap:round; stroke-linejoin:round;">
<circle cx="40275.6" cy="46968.5" r="68.8976" /> 
</g>
<g style="fill:#000000; fill-opacity:1.0; 
stroke:#000000; stroke-width:39.3701; stroke-opacity:1; 
stroke-linecap:round; stroke-linejoin:round;">
</g>
<g style="fill:#000000; fill-opacity:1.0; 
stroke:#000000; stroke-width:0; stroke-opacity:1; 
stroke-linecap:round; stroke-linejoin:round;">
<circle cx="36811" cy="46968.5" r="68.8976" /> 
</g>
<g style="fill:#000000; fill-opacity:1.0; 
stroke:#000000; stroke-width:39.3701; stroke-opacity:1; 
stroke-linecap:round; stroke-linejoin:round;">
</g>
<g style="fill:#000000; fill-opacity:1.0; 
stroke:#000000; stroke-width:0; stroke-opacity:1; 
stroke-linecap:round; stroke-linejoin:round;">
<circle cx="39527.6" cy="49724.4" r="68.8976" /> 
</g>
<g style="fill:#000000; fill-opacity:1.0; 
stroke:#000000; stroke-width:39.3701; stroke-opacity:1; 
stroke-linecap:round; stroke-linejoin:round;">
</g>
<g style="fill:#000000; fill-opacity:1.0; 
stroke:#000000; stroke-width:0; stroke-opacity:1; 
stroke-linecap:round; stroke-linejoin:round;">
<circle cx="38543.3" cy="49724.4" r="68.8976" /> 
</g>
<g style="fill:#000000; fill-opacity:1.0; 
stroke:#000000; stroke-width:39.3701; stroke-opacity:1; 
stroke-linecap:round; stroke-linejoin:round;">
</g>
<g style="fill:#000000; fill-opacity:1.0; 
stroke:#000000; stroke-width:0; stroke-opacity:1; 
stroke-linecap:round; stroke-linejoin:round;">
<circle cx="37559.1" cy="49724.4" r="68.8976" /> 
</g>
<g style="fill:#000000; fill-opacity:1.0; 
stroke:#000000; stroke-width:39.3701; stroke-opacity:1; 
stroke-linecap:round; stroke-linejoin:round;">
</g>
<g style="fill:#000000; fill-opacity:1.0; 
stroke:#000000; stroke-width:0; stroke-opacity:1; 
stroke-linecap:round; stroke-linejoin:round;">
<circle cx="28000" cy="51000" r="68.8976" /> 
</g>
<g style="fill:#000000; fill-opacity:1.0; 
stroke:#000000; stroke-width:39.3701; stroke-opacity:1; 
stroke-linecap:round; stroke-linejoin:round;">
</g>
<g style="fill:#000000; fill-opacity:1.0; 
stroke:#000000; stroke-width:0; stroke-opacity:1; 
stroke-linecap:round; stroke-linejoin:round;">
<circle cx="26500" cy="51000" r="68.8976" /> 
</g>
<g style="fill:#000000; fill-opacity:1.0; 
stroke:#000000; stroke-width:39.3701; stroke-opacity:1; 
stroke-linecap:round; stroke-linejoin:round;">
</g>
<g style="fill:#000000; fill-opacity:1.0; 
stroke:#000000; stroke-width:0; stroke-opacity:1; 
stroke-linecap:round; stroke-linejoin:round;">
<circle cx="34000" cy="51000" r="68.8976" /> 
</g>
<g style="fill:#000000; fill-opacity:1.0; 
stroke:#000000; stroke-width:39.3701; stroke-opacity:1; 
stroke-linecap:round; stroke-linejoin:round;">
</g>
<g style="fill:#000000; fill-opacity:1.0; 
stroke:#000000; stroke-width:0; stroke-opacity:1; 
stroke-linecap:round; stroke-linejoin:round;">
<circle cx="32500" cy="51000" r="68.8976" /> 
</g>
<g style="fill:#000000; fill-opacity:1.0; 
stroke:#000000; stroke-width:39.3701; stroke-opacity:1; 
stroke-linecap:round; stroke-linejoin:round;">
</g>
<g style="fill:#000000; fill-opacity:1.0; 
stroke:#000000; stroke-width:0; stroke-opacity:1; 
stroke-linecap:round; stroke-linejoin:round;">
<circle cx="22952.8" cy="50944.9" r="68.8976" /> 
</g>
<g style="fill:#000000; fill-opacity:1.0; 
stroke:#000000; stroke-width:39.3701; stroke-opacity:1; 
stroke-linecap:round; stroke-linejoin:round;">
</g>
<g style="fill:#000000; fill-opacity:1.0; 
stroke:#000000; stroke-width:0; stroke-opacity:1; 
stroke-linecap:round; stroke-linejoin:round;">
<circle cx="21702.8" cy="50944.9" r="68.8976" /> 
</g>
<g style="fill:#000000; fill-opacity:1.0; 
stroke:#000000; stroke-width:39.3701; stroke-opacity:1; 
stroke-linecap:round; stroke-linejoin:round;">
</g>
<g style="fill:#000000; fill-opacity:1.0; 
stroke:#000000; stroke-width:0; stroke-opacity:1; 
stroke-linecap:round; stroke-linejoin:round;">
<circle cx="20452.8" cy="50944.9" r="68.8976" /> 
</g>
<g style="fill:#000000; fill-opacity:1.0; 
stroke:#000000; stroke-width:39.3701; stroke-opacity:1; 
stroke-linecap:round; stroke-linejoin:round;">
</g>
<g style="fill:#000000; fill-opacity:1.0; 
stroke:#000000; stroke-width:0; stroke-opacity:1; 
stroke-linecap:round; stroke-linejoin:round;">
<circle cx="37578.7" cy="50944.9" r="68.8976" /> 
</g>
<g style="fill:#000000; fill-opacity:1.0; 
stroke:#000000; stroke-width:39.3701; stroke-opacity:1; 
stroke-linecap:round; stroke-linejoin:round;">
</g>
<g style="fill:#000000; fill-opacity:1.0; 
stroke:#000000; stroke-width:0; stroke-opacity:1; 
stroke-linecap:round; stroke-linejoin:round;">
<circle cx="38828.7" cy="50944.9" r="68.8976" /> 
</g>
<g style="fill:#000000; fill-opacity:1.0; 
stroke:#000000; stroke-width:39.3701; stroke-opacity:1; 
stroke-linecap:round; stroke-linejoin:round;">
</g>
<g style="fill:#000000; fill-opacity:1.0; 
stroke:#000000; stroke-width:0; stroke-opacity:1; 
stroke-linecap:round; stroke-linejoin:round;">
<circle cx="40078.7" cy="50944.9" r="68.8976" /> 
</g>
<g style="fill:#000000; fill-opacity:1.0; 
stroke:#000000; stroke-width:39.3701; stroke-opacity:1; 
stroke-linecap:round; stroke-linejoin:round;">
</g>
<g style="fill:#000000; fill-opacity:1.0; 
stroke:#000000; stroke-width:0; stroke-opacity:1; 
stroke-linecap:round; stroke-linejoin:round;">
<circle cx="20984.3" cy="49763.8" r="68.8976" /> 
</g>
<g style="fill:#000000; fill-opacity:1.0; 
stroke:#000000; stroke-width:39.3701; stroke-opacity:1; 
stroke-linecap:round; stroke-linejoin:round;">
</g>
<g style="fill:#000000; fill-opacity:1.0; 
stroke:#000000; stroke-width:0; stroke-opacity:1; 
stroke-linecap:round; stroke-linejoin:round;">
<circle cx="21968.5" cy="49763.8" r="68.8976" /> 
</g>
<g style="fill:#000000; fill-opacity:1.0; 
stroke:#000000; stroke-width:39.3701; stroke-opacity:1; 
stroke-linecap:round; stroke-linejoin:round;">
</g>
<g style="fill:#000000; fill-opacity:1.0; 
stroke:#000000; stroke-width:0; stroke-opacity:1; 
stroke-linecap:round; stroke-linejoin:round;">
<circle cx="22952.8" cy="49763.8" r="68.8976" /> 
</g>
<g style="fill:#000000; fill-opacity:1.0; 
stroke:#000000; stroke-width:39.3701; stroke-opacity:1; 
stroke-linecap:round; stroke-linejoin:round;">
</g>
<g style="fill:#000000; fill-opacity:1.0; 
stroke:#000000; stroke-width:0; stroke-opacity:1; 
stroke-linecap:round; stroke-linejoin:round;">
<circle cx="20236.2" cy="47007.9" r="68.8976" /> 
</g>
<g style="fill:#000000; fill-opacity:1.0; 
stroke:#000000; stroke-width:39.3701; stroke-opacity:1; 
stroke-linecap:round; stroke-linejoin:round;">
</g>
<g style="fill:#000000; fill-opacity:1.0; 
stroke:#000000; stroke-width:0; stroke-opacity:1; 
stroke-linecap:round; stroke-linejoin:round;">
<circle cx="23700.8" cy="47007.9" r="68.8976" /> 
</g>
<g style="fill:#000000; fill-opacity:1.0; 
stroke:#000000; stroke-width:39.3701; stroke-opacity:1; 
stroke-linecap:round; stroke-linejoin:round;">
</g>
<g style="fill:#000000; fill-opacity:1.0; 
stroke:#000000; stroke-width:0; stroke-opacity:1; 
stroke-linecap:round; stroke-linejoin:round;">
<circle cx="26535.4" cy="44566.9" r="68.8976" /> 
</g>
<g style="fill:#000000; fill-opacity:1.0; 
stroke:#000000; stroke-width:39.3701; stroke-opacity:1; 
stroke-linecap:round; stroke-linejoin:round;">
</g>
<g style="fill:#000000; fill-opacity:1.0; 
stroke:#000000; stroke-width:0; stroke-opacity:1; 
stroke-linecap:round; stroke-linejoin:round;">
<circle cx="28503.9" cy="44566.9" r="68.8976" /> 
</g>
<g style="fill:#000000; fill-opacity:1.0; 
stroke:#000000; stroke-width:39.3701; stroke-opacity:1; 
stroke-linecap:round; stroke-linejoin:round;">
</g>
<g style="fill:#000000; fill-opacity:1.0; 
stroke:#000000; stroke-width:0; stroke-opacity:1; 
stroke-linecap:round; stroke-linejoin:round;">
<circle cx="26535.4" cy="49488.2" r="68.8976" /> 
</g>
<g style="fill:#000000; fill-opacity:1.0; 
stroke:#000000; stroke-width:39.3701; stroke-opacity:1; 
stroke-linecap:round; stroke-linejoin:round;">
</g>
<g style="fill:#000000; fill-opacity:1.0; 
stroke:#000000; stroke-width:0; stroke-opacity:1; 
stroke-linecap:round; stroke-linejoin:round;">
<circle cx="28503.9" cy="49488.2" r="68.8976" /> 
</g>
<g style="fill:#000000; fill-opacity:1.0; 
stroke:#000000; stroke-width:39.3701; stroke-opacity:1; 
stroke-linecap:round; stroke-linejoin:round;">
</g>
<g style="fill:#000000; fill-opacity:1.0; 
stroke:#000000; stroke-width:0; stroke-opacity:1; 
stroke-linecap:round; stroke-linejoin:round;">
<circle cx="32000" cy="44578.7" r="68.8976" /> 
</g>
<g style="fill:#000000; fill-opacity:1.0; 
stroke:#000000; stroke-width:39.3701; stroke-opacity:1; 
stroke-linecap:round; stroke-linejoin:round;">
</g>
<g style="fill:#000000; fill-opacity:1.0; 
stroke:#000000; stroke-width:0; stroke-opacity:1; 
stroke-linecap:round; stroke-linejoin:round;">
<circle cx="33968.5" cy="44578.7" r="68.8976" /> 
</g>
<g style="fill:#000000; fill-opacity:1.0; 
stroke:#000000; stroke-width:39.3701; stroke-opacity:1; 
stroke-linecap:round; stroke-linejoin:round;">
</g>
<g style="fill:#000000; fill-opacity:1.0; 
stroke:#000000; stroke-width:0; stroke-opacity:1; 
stroke-linecap:round; stroke-linejoin:round;">
<circle cx="32000" cy="49500" r="68.8976" /> 
</g>
<g style="fill:#000000; fill-opacity:1.0; 
stroke:#000000; stroke-width:39.3701; stroke-opacity:1; 
stroke-linecap:round; stroke-linejoin:round;">
</g>
<g style="fill:#000000; fill-opacity:1.0; 
stroke:#000000; stroke-width:0; stroke-opacity:1; 
stroke-linecap:round; stroke-linejoin:round;">
<circle cx="33968.5" cy="49500" r="68.8976" /> 
</g>
<g style="fill:#000000; fill-opacity:1.0; 
stroke:#000000; stroke-width:39.3701; stroke-opacity:1; 
stroke-linecap:round; stroke-linejoin:round;">
</g>
<g style="fill:#000000; fill-opacity:1.0; 
stroke:#000000; stroke-width:0; stroke-opacity:1; 
stroke-linecap:round; stroke-linejoin:round;">
<circle cx="42913.4" cy="47047.2" r="68.8976" /> 
</g>
<g style="fill:#000000; fill-opacity:1.0; 
stroke:#000000; stroke-width:39.3701; stroke-opacity:1; 
stroke-linecap:round; stroke-linejoin:round;">
</g>
<g style="fill:#000000; fill-opacity:1.0; 
stroke:#000000; stroke-width:0; stroke-opacity:1; 
stroke-linecap:round; stroke-linejoin:round;">
<circle cx="17637.8" cy="47007.9" r="68.8976" /> 
</g>
<g style="fill:#000000; fill-opacity:1.0; 
stroke:#000000; stroke-width:39.3701; stroke-opacity:1; 
stroke-linecap:round; stroke-linejoin:round;">
</g>
<g style="fill:#FFFFFF; fill-opacity:1.0; 
stroke:#FFFFFF; stroke-width:39.3701; stroke-opacity:1; 
stroke-linecap:round; stroke-linejoin:round;">
</g> 
</svg>
